<svg xmlns="http://www.w3.org/2000/svg" x="0px" y="0px"
width="24" height="24"
viewBox="0 0 172 172"
style=" fill:#000000;"><g fill="none" fill-rule="nonzero" stroke="none" stroke-width="1" stroke-linecap="butt" stroke-linejoin="miter" stroke-miterlimit="10" stroke-dasharray="" stroke-dashoffset="0" font-family="none" font-weight="none" font-size="none" text-anchor="none" style="mix-blend-mode: normal"><path d="M0,172v-172h172v172z" fill="none"></path><g fill="#2d3579"><path d="M160.20367,83.463c0.67397,0.67226 1.05274,1.58507 1.05274,2.537c0,0.95193 -0.37877,1.86474 -1.05274,2.537l-43,43c-1.40115,1.40115 -3.67285,1.40115 -5.074,0c-1.40115,-1.40115 -1.40115,-3.67285 0,-5.074l36.88683,-36.87967h-134.68317c-1.97902,0 -3.58333,-1.60431 -3.58333,-3.58333c0,-1.97902 1.60431,-3.58333 3.58333,-3.58333h134.68317l-36.88683,-36.87967c-1.40115,-1.40115 -1.40115,-3.67285 0,-5.074c1.40115,-1.40115 3.67285,-1.40115 5.074,0z"></path></g></g></svg>