<svg xmlns="http://www.w3.org/2000/svg" x="0px" y="0px"
width="24" height="24"
viewBox="0 0 172 172"
style=" fill:#000000;"><g fill="none" fill-rule="nonzero" stroke="none" stroke-width="1" stroke-linecap="butt" stroke-linejoin="miter" stroke-miterlimit="10" stroke-dasharray="" stroke-dashoffset="0" font-family="none" font-weight="none" font-size="none" text-anchor="none" style="mix-blend-mode: normal"><path d="M0,172v-172h172v172z" fill="none"></path><g fill="#2d3579"><path d="M160.20023,83.46644c0.67207,0.67182 1.04966,1.58315 1.04966,2.53342c0,0.95027 -0.37759,1.8616 -1.04966,2.53342l-43,43c-1.40602,1.35798 -3.64097,1.33856 -5.02318,-0.04365c-1.38221,-1.38221 -1.40163,-3.61716 -0.04365,-5.02318l36.88311,-36.88311h-134.68317c-1.97902,0 -3.58333,-1.60431 -3.58333,-3.58333c0,-1.97902 1.60431,-3.58333 3.58333,-3.58333h134.68317l-36.88339,-36.88311c-1.35798,-1.40602 -1.33856,-3.64097 0.04365,-5.02318c1.38221,-1.38221 3.61716,-1.40163 5.02318,-0.04365z"></path></g></g></svg>