<svg xmlns="http://www.w3.org/2000/svg" width="40px" viewBox="0 0 48 48" x="0px" y="0px" style="max-width:100%" height="100%"><title style="" fill="#FFFFFF">Pet And Animal vol.1</title><g data-name="Layer 10" style="" fill="#FFFFFF"><path d="M43.77344,25.299l2.14062-.30975a.99962.99962,0,1,0-.28711-1.97852l-1.85351.26819V5.83887a4.62,4.62,0,0,0-8.11817-3.01856L29.47949,9.97656a10.8373,10.8373,0,0,0-5.39062-1.37988,10.46909,10.46909,0,0,0-5.373,1.39551l-6.11523-7.124a4.62074,4.62074,0,0,0-8.126,3.00977V23.31482l-2.10156-.30408a.99962.99962,0,1,0-.28711,1.97852l2.38867.34564v2.462a18.92626,18.92626,0,0,0,.51758,4.33123l-2.98926.69513a.99985.99985,0,0,0,.22559,1.97364.95827.95827,0,0,0,.22753-.02637l3.09809-.72046a19.00853,19.00853,0,0,0,17.91266,12.739h1.31445A19.0078,19.0078,0,0,0,42.67444,34.10321l2.86951.6673a.95827.95827,0,0,0,.22753.02637.99985.99985,0,0,0,.22559-1.97364l-2.75519-.64074a18.91892,18.91892,0,0,0,.53156-4.38562ZM34.89453,32.294l5.81915,1.35327A17.0055,17.0055,0,0,1,24.78125,44.78906H23.4668a17.00562,17.00562,0,0,1-15.95191-11.195L13.10547,32.294a.99965.99965,0,0,0-.45313-1.94727L6.9386,31.67542a16.92885,16.92885,0,0,1-.464-3.87854V25.62433l6.26074.90594a.90764.90764,0,0,0,.14453.01075.99983.99983,0,0,0,.14258-1.98926l-6.54785-.94751V5.87793a2.5709,2.5709,0,0,1,1.71-2.457,2.74506,2.74506,0,0,1,.94238-.168,2.52387,2.52387,0,0,1,1.95606.918l6.44043,7.50293c.00647.02246.02142.0404.02942.06213a.95873.95873,0,0,0,.05566.11756.98112.98112,0,0,0,.12653.18786.96809.96809,0,0,0,.09033.09491.98438.98438,0,0,0,.19714.13281.94184.94184,0,0,0,.10211.05481.98506.98506,0,0,0,.35975.07257.9955.9955,0,0,0,.43511-.1.978.978,0,0,0,.093-.07276,1.00144,1.00144,0,0,0,.24237-.18951,8.1496,8.1496,0,0,1,4.834-1.4375,8.57256,8.57256,0,0,1,4.95605,1.47461,1.22631,1.22631,0,0,0,.65039.18652.99966.99966,0,0,0,.75684-.34668L37.169,4.127a2.62052,2.62052,0,0,1,4.60449,1.71192V23.56836l-6.7959.9834a.99983.99983,0,0,0,.14258,1.98926.90764.90764,0,0,0,.14453-.01075l6.50879-.94183v2.20844a16.926,16.926,0,0,1-.478,3.933l-5.94775-1.38318a.99965.99965,0,1,0-.45313,1.94727Z" style="" fill="#FFFFFF"></path><path d="M18.67969,21.72949a.99719.99719,0,1,0,1.41015-1.41015.636.636,0,0,0-.15039-.12989c-.0498-.02929-.10937-.05957-.16992-.08984a1.07444,1.07444,0,0,0-.18945-.04981A.97335.97335,0,0,0,19,20.09961a1.01214,1.01214,0,0,0-.32031.21973.933.933,0,0,0-.29.70019.93081.93081,0,0,0,.29.71Z" style="" fill="#FFFFFF"></path><path d="M28.81934,22.01953a.98023.98023,0,0,0,.70019-.29.99538.99538,0,0,0,.29981-.71.97654.97654,0,0,0-.29981-.70019.65035.65035,0,0,0-.14941-.12989c-.05078-.02929-.11035-.05957-.16992-.08984-.06055-.01953-.12012-.04-.19043-.05957a1.0052,1.0052,0,0,0-.90039.2793.97106.97106,0,0,0-.29.70019.99042.99042,0,0,0,1,1Z" style="" fill="#FFFFFF"></path><path d="M29.80957,34.61328a.99943.99943,0,0,0-1,1c0,.72656-.84375,1.33985-1.84277,1.33985S25.124,36.33984,25.124,35.61328V31.3a2.99875,2.99875,0,0,0,2.69629-2.676c0-1.56347-1.624-2.78906-3.69629-2.78906s-3.69531,1.22559-3.69531,2.78906A2.998,2.998,0,0,0,23.124,31.29993v4.31335c0,.72656-.84375,1.33985-1.84277,1.33985s-1.84277-.61329-1.84277-1.33985a1,1,0,0,0-2,0,3.62174,3.62174,0,0,0,3.84277,3.33985A4.08944,4.08944,0,0,0,24.124,37.84045a4.08947,4.08947,0,0,0,2.84278,1.11268,3.62174,3.62174,0,0,0,3.84277-3.33985A.99943.99943,0,0,0,29.80957,34.61328ZM22.42871,28.624c0-.27832.64356-.78906,1.69531-.78906,1.05274,0,1.69629.51074,1.69629.78906s-.64355.78809-1.69629.78809C23.07227,29.41211,22.42871,28.90234,22.42871,28.624Z" style="" fill="#FFFFFF"></path></g></svg>