<svg xmlns="http://www.w3.org/2000/svg" xmlns:xlink="http://www.w3.org/1999/xlink" version="1.1" x="0px" y="0px" viewBox="0 0 49 49" enable-background="new 0 0 49 49" xml:space="preserve" style="max-width:100%" height="100%"><path fill-rule="evenodd" clip-rule="evenodd" d="M27.788,25.371h11.588c0.745,0,1.346-0.601,1.346-1.346  c0-0.744-0.601-1.345-1.346-1.345H27.842c-0.286-0.642-0.793-1.157-1.471-1.458V8.33c0-0.745-0.601-1.346-1.346-1.346  c-0.744,0-1.345,0.601-1.345,1.346v12.839c-1.032,0.403-1.74,1.336-1.74,2.803c0,1.677,1.122,3.139,3.032,3.139  C26.111,27.111,27.25,26.456,27.788,25.371z M25.868,23.972c0,0.672-0.672,0.897-0.896,0.897c-0.79,0-0.79-0.672-0.79-0.897  c0-0.565,0.225-0.79,0.79-0.79C25.645,23.183,25.868,23.748,25.868,23.972z M44.309,24.25c0,10.427-8.632,19.059-19.059,19.059  c-10.539,0-19.059-8.632-19.059-19.059c0-10.539,8.52-19.06,19.059-19.06C35.677,5.19,44.309,13.711,44.309,24.25z M47,24.25  C47,12.254,37.134,2.5,25.25,2.5C15.272,2.5,4.845,9.451,3.5,22.792v2.916c0,1.569,0.673,4.036,1.009,5.27  C8.097,41.516,17.514,46,25.25,46C37.134,46,47,36.134,47,24.25z" style="" fill="currentColor"></path></svg>