<svg xmlns="http://www.w3.org/2000/svg" xmlns:xlink="http://www.w3.org/1999/xlink" version="1.1" x="0px" y="0px" viewBox="0 0 24 24" enable-background="new 0 0 24 24" xml:space="preserve" style="max-width:100%" height="100%"><path d="M21.4,20l-2.9-4.2C18,15,17,14.8,16.3,15.3l-1.9,1.2l-0.2,0l-0.1,0.1c-0.2,0-1.1-0.2-3.4-3.4c-2-3-2-4.2-1.9-4.6  C9,8.6,9,8.5,9,8.5l2-1.3C11.7,6.8,12,5.8,11.5,5L8.7,1L8.7,0.9c0,0-0.5-0.4-1.3-0.4c-0.8,0-1.6,0.3-2.5,1L4.7,1.6  C3,4.2,2.6,7.3,2.6,7.5l0,0.1l0,0.1c0.7,3.3,2.3,6,3.5,7.8l0,0l1,1.4l0,0c1.3,1.9,3.1,4.2,5.8,6l0.1,0.1c0.1,0,1.8,0.6,4,0.6  c0,0,0,0,0,0c0.8,0,1.5-0.1,2.2-0.2l0.2-0.1C21.9,21.7,21.4,20,21.4,20z M18.9,22.3c-0.6,0.1-1.2,0.2-1.9,0.2c0,0,0,0,0,0  c-1.8,0-3.3-0.4-3.6-0.5c-2.7-1.9-4.4-4.2-5.8-6.1l-0.3-0.4c-1.1-1.7-2.9-4.5-3.7-7.9C3.7,7,4.1,4.4,5.5,2.3C7.1,1.1,7.8,1.5,8,1.6  l2.7,4c0.2,0.3,0.1,0.6-0.2,0.8L8.6,7.6C8.5,7.7,8.2,7.9,8,8.3c-0.4,1.1,0.2,2.9,2,5.6c1.8,2.6,3.1,3.8,4.2,3.8  c0.4,0,0.7-0.2,0.8-0.4l1.8-1.2c0.3-0.2,0.6-0.1,0.8,0.2l2.8,4C20.4,20.5,20.4,21.4,18.9,22.3z" style="" fill="currentColor"></path></svg>