<svg xmlns="http://www.w3.org/2000/svg" xmlns:xlink="http://www.w3.org/1999/xlink" version="1.1" x="0px" y="0px" width="40px" viewBox="0 0 100 100" style="enable-background:new 0 0 100 100;max-width:100%" xml:space="preserve" height="100%"><path d="M79.8,11c-2.3-1.3-5-2-7.8-2H28c-2.8,0-5.5,0.8-7.8,2C11.8,11.5,5,18.5,5,27v22c0,1.1,0.9,2,2,2c1.8,0,3.4-0.3,5-0.8V51  c0,7,2.2,13.5,6.1,18.7c0,0.4-0.1,0.9-0.1,1.3c0,9.4,7.6,17,17,17c1.9,0,3.7-0.3,5.4-0.9c2.5,2.4,5.9,3.9,9.6,3.9s7.1-1.5,9.6-3.9  c1.7,0.6,3.5,0.9,5.4,0.9c9.4,0,17-7.6,17-17c0-0.4,0-0.9-0.1-1.3C85.8,64.5,88,58,88,51v-0.8c1.6,0.5,3.2,0.8,5,0.8  c1.1,0,2-0.9,2-2V27C95,18.5,88.2,11.5,79.8,11z M9,46.8V27c0-5.9,4.3-10.9,10-11.8V35C19,40.9,14.7,45.9,9,46.8z M35,84  c-7.2,0-13-5.8-13-13c0-7.2,5.8-13,13-13h7.3c0.7,2.8,2.9,5,5.7,5.7V71C48,78.2,42.2,84,35,84z M46,56c0-2.2,1.8-4,4-4s4,1.8,4,4  c0,2.2-1.8,4-4,4S46,58.2,46,56z M50,87c-2.1,0-4.1-0.7-5.7-1.8c2.4-1.6,4.3-3.7,5.7-6.2c1.3,2.5,3.3,4.7,5.7,6.2  C54.1,86.3,52.1,87,50,87z M65,84c-7.2,0-13-5.8-13-13v-7.3c2.8-0.7,5-2.9,5.7-5.7H65c7.2,0,13,5.8,13,13C78,78.2,72.2,84,65,84z   M84,51c0,4.8-1.2,9.3-3.4,13.3C78,58.3,72,54,65,54h-7.3c-0.9-3.4-4-6-7.7-6s-6.8,2.6-7.7,6H35c-7,0-13,4.3-15.6,10.3  c-2.2-4-3.4-8.5-3.4-13.3v-2.8c4.2-2.9,7-7.7,7-13.2V14.1c1.5-0.7,3.2-1.1,5-1.1h44c1.8,0,3.5,0.4,5,1.1V35c0,5.5,2.8,10.3,7,13.2  V51z M91,46.8c-5.7-0.9-10-5.9-10-11.8V15.2c5.7,1,10,5.9,10,11.8V46.8z M37.4,38.6C37.8,39,38,39.5,38,40c0,0.5-0.2,1-0.6,1.4  C37,41.8,36.5,42,36,42c-0.1,0-0.3,0-0.4,0c-0.1,0-0.2-0.1-0.4-0.1c-0.1,0-0.2-0.1-0.3-0.2s-0.2-0.1-0.3-0.2C34.2,41,34,40.5,34,40  c0-0.5,0.2-1,0.6-1.4c0.1-0.1,0.2-0.2,0.3-0.2s0.2-0.1,0.3-0.2c0.1,0,0.2-0.1,0.4-0.1c0.3,0,0.5,0,0.8,0c0.1,0,0.2,0.1,0.4,0.1  c0.1,0.1,0.2,0.1,0.3,0.2S37.3,38.5,37.4,38.6z M66,39.6c0,0.1,0,0.3,0,0.4s0,0.3,0,0.4c0,0.1-0.1,0.2-0.1,0.4  c0,0.1-0.1,0.2-0.2,0.3c-0.1,0.1-0.1,0.2-0.2,0.3C65,41.8,64.5,42,64,42s-1-0.2-1.4-0.6C62.2,41,62,40.5,62,40c0-0.1,0-0.3,0-0.4  c0-0.1,0.1-0.2,0.1-0.4c0-0.1,0.1-0.2,0.2-0.3c0.1-0.1,0.1-0.2,0.2-0.3c0.7-0.7,2.1-0.7,2.8,0c0.1,0.1,0.2,0.2,0.2,0.3  c0.1,0.1,0.1,0.2,0.2,0.3C65.9,39.4,65.9,39.5,66,39.6z" style="" fill="currentColor"></path></svg>