<svg xmlns:dc="http://purl.org/dc/elements/1.1/" xmlns:cc="http://creativecommons.org/ns#" xmlns:rdf="http://www.w3.org/1999/02/22-rdf-syntax-ns#" xmlns:svg="http://www.w3.org/2000/svg" xmlns="http://www.w3.org/2000/svg" xmlns:sodipodi="http://sodipodi.sourceforge.net/DTD/sodipodi-0.dtd" xmlns:inkscape="http://www.inkscape.org/namespaces/inkscape" preserveAspectRatio="xMidYMid" width="40px" viewBox="0 0 63 64" version="1.1" x="0px" y="0px" style="max-width:100%" height="100%"><defs style="" fill="#FFFFFF"><style style="" fill="#FFFFFF">

      .cls-3 {
        fill: #000000;
      }
    </style></defs><path style="" d="M 45.03125 0 C 44.739625 -0.031125 44.458 0.0445 44.1875 0.1875 L 23.9375 10.9375 C 16.015429 13.206375 10.758579 21.581466 10.09375 22.6875 C 5.32775 28.5605 0.51575 33.11225 0.46875 33.15625 C 0.16575 33.44225 -0.002 33.834 0 34.25 C 0.002 34.666 0.16375 35.06075 0.46875 35.34375 C 0.51875 35.38975 5.489 39.97675 10.25 45.84375 C 11.022 47.14375 17.8925 58.1875 27.9375 58.1875 C 28.235066 58.1875 28.516033 58.175645 28.8125 58.15625 L 48.375 62.96875 C 48.494 62.99775 48.631 63 48.75 63 C 49.269 63 49.75625 62.74125 50.03125 62.28125 C 50.36925 61.71625 50.28475 60.989 49.84375 60.5 L 41.375 51.125 C 42.732603 49.642435 44.066325 47.94486 45.375 46 C 45.4 45.965 47.93625 42.40625 51.90625 42.40625 C 54.37125 42.40625 57.03075 43.75125 59.71875 46.40625 C 60.15075 46.83125 60.91375 46.94975 61.46875 46.71875 C 62.02775 46.48575 62.59375 45.9175 62.59375 45.3125 L 62.59375 23.28125 C 62.59375 22.67725 62.02775 22.107 61.46875 21.875 C 60.91275 21.642 60.055 21.7615 59.625 22.1875 C 56.943 24.8355 54.331 26.1875 51.875 26.1875 C 47.907 26.1875 45.398 22.5955 45.375 22.5625 C 44.021933 20.551768 42.654275 18.798201 41.25 17.28125 L 46.3125 1.96875 C 46.5045 1.38675 46.31175 0.73975 45.84375 0.34375 C 45.60975 0.14625 45.322875 0.031125 45.03125 0 z M 42.28125 4.59375 L 38.84375 14.96875 C 36.231668 12.712618 33.530461 11.274779 30.78125 10.6875 L 42.28125 4.59375 z M 27.9375 13.375 C 33.0335 13.375 38.142 17.031 43 24.25 C 43.136 24.452 46.50375 29.1875 52.09375 29.1875 C 54.51675 29.1875 56.59375 28.30325 59.59375 26.53125 L 59.59375 42.0625 C 56.59375 40.2865 54.4925 39.375 52.0625 39.375 C 46.4745 39.375 43.012 44.1095 42.875 44.3125 C 38.019 51.5285 32.9975 55.1875 27.9375 55.1875 C 19.2335 55.1875 12.84525 44.359 12.78125 44.25 C 12.74225 44.182 12.70525 44.1225 12.65625 44.0625 C 9.07725 39.6405 5.44825 35.96175 3.65625 34.21875 C 5.40725 32.48675 8.939 28.899 12.5 24.5 C 12.548 24.441 12.61725 24.3785 12.65625 24.3125 C 12.696081 24.243586 15.286143 19.880329 19.40625 16.6875 C 19.501756 16.659441 19.59625 16.610875 19.6875 16.5625 L 24.78125 13.84375 C 25.798328 13.547459 26.839375 13.375 27.9375 13.375 z M 26.75 22.84375 C 26.557344 22.868156 26.36575 22.928 26.1875 23.03125 C 25.4715 23.44425 25.214 24.3455 25.625 25.0625 C 25.799 25.3655 29.82975 32.58625 25.59375 40.90625 C 25.21775 41.64525 25.512 42.53025 26.25 42.90625 C 26.468 43.01625 26.7075 43.0625 26.9375 43.0625 C 27.4835 43.0625 28.01625 42.77 28.28125 42.25 C 33.27825 32.434 28.42575 23.9205 28.21875 23.5625 C 27.906 23.02625 27.327969 22.770531 26.75 22.84375 z M 33.59375 22.84375 C 33.400969 22.868156 33.20975 22.928 33.03125 23.03125 C 32.31525 23.44425 32.089 24.3455 32.5 25.0625 C 32.674 25.3655 36.70475 32.58625 32.46875 40.90625 C 32.09275 41.64525 32.387 42.53025 33.125 42.90625 C 33.343 43.01625 33.55225 43.0625 33.78125 43.0625 C 34.32725 43.0625 34.86 42.77 35.125 42.25 C 40.122 32.434 35.30175 23.9205 35.09375 23.5625 C 34.78175 23.02625 34.172094 22.770531 33.59375 22.84375 z M 16.625 27.875 C 13.789 27.875 11.46875 30.0995 11.46875 32.8125 C 11.46875 35.5245 13.789 37.71875 16.625 37.71875 C 19.461 37.71875 21.78125 35.5245 21.78125 32.8125 C 21.78125 30.0995 19.461 27.875 16.625 27.875 z M 16.625 30.875 C 17.807 30.875 18.78125 31.7535 18.78125 32.8125 C 18.78125 33.8705 17.807 34.71875 16.625 34.71875 C 15.443 34.71875 14.46875 33.8705 14.46875 32.8125 C 14.46875 31.7535 15.443 30.875 16.625 30.875 z M 39.28125 53.25 L 44.34375 58.875 L 34.65625 56.5 C 36.210665 55.700619 37.773641 54.607044 39.28125 53.25 z " fill="#FFFFFF" fill-rule="evenodd"></path></svg>