<svg xmlns="http://www.w3.org/2000/svg" x="0px" y="0px"
width="28" height="28"
viewBox="0 0 172 172"
style=" fill:#000000;"><g fill="none" fill-rule="nonzero" stroke="none" stroke-width="1" stroke-linecap="butt" stroke-linejoin="miter" stroke-miterlimit="10" stroke-dasharray="" stroke-dashoffset="0" font-family="none" font-weight="none" font-size="none" text-anchor="none" style="mix-blend-mode: normal"><path d="M0,172v-172h172v172z" fill="none"></path><g fill="#fa3600"><path d="M55.04,10.32c-24.6648,0 -44.72,20.0552 -44.72,44.72v61.92c0,24.6648 20.0552,44.72 44.72,44.72h61.92c24.6648,0 44.72,-20.0552 44.72,-44.72v-61.92c0,-24.6648 -20.0552,-44.72 -44.72,-44.72zM127.28,37.84c3.784,0 6.88,3.096 6.88,6.88c0,3.784 -3.096,6.88 -6.88,6.88c-3.784,0 -6.88,-3.096 -6.88,-6.88c0,-3.784 3.096,-6.88 6.88,-6.88zM86,48.16c20.8808,0 37.84,16.9592 37.84,37.84c0,20.8808 -16.9592,37.84 -37.84,37.84c-20.8808,0 -37.84,-16.9592 -37.84,-37.84c0,-20.8808 16.9592,-37.84 37.84,-37.84zM86,55.04c-17.0624,0 -30.96,13.8976 -30.96,30.96c0,17.0624 13.8976,30.96 30.96,30.96c17.0624,0 30.96,-13.8976 30.96,-30.96c0,-17.0624 -13.8976,-30.96 -30.96,-30.96z"></path></g></g></svg>