<svg xmlns="http://www.w3.org/2000/svg" xmlns:xlink="http://www.w3.org/1999/xlink" version="1.1" x="0px" y="0px" width="40px" viewBox="0 0 400 400" enable-background="new 0 0 400 400" xml:space="preserve" style="max-width:100%" height="100%"><g style="" fill="#FFFFFF"><path d="M160.604,239.123c0-9.047-7.332-16.383-16.383-16.383c-2.57,0-4.992,0.608-7.156,1.663   c-6.813,1.251-16.638,2.363-20.505-0.624c0,0,4.29,7.256,12.27,9.775c-0.63,1.74-0.992,3.61-0.992,5.568   c0,9.049,7.334,16.384,16.383,16.384C153.271,255.507,160.604,248.172,160.604,239.123z" style="" fill="#FFFFFF"></path><path d="M236.477,312.865c-0.75,0.358-1.56,0.754-2.426,1.176c-6.742,3.291-17.254,8.406-29.051,10.063v-23.737   c5.335-3.415,11.118-8.481,11.118-14.411c0-11.001-8.92-10.204-19.919-10.204c-11,0-19.917-0.797-19.917,10.204   c0,6.152,6.227,11.378,11.718,14.791v23.016c-10.921-1.935-20.579-6.631-26.909-9.721c-0.865-0.423-1.674-0.817-2.423-1.176   c-4.235-2.023-9.31-0.232-11.335,4.002c-2.025,4.235-0.233,9.311,4.002,11.336c0.711,0.34,1.479,0.715,2.3,1.115   c9.451,4.612,25.269,12.332,43.936,12.332s34.485-7.719,43.937-12.331c0.822-0.401,1.591-0.776,2.302-1.116   c4.235-2.025,6.027-7.1,4.003-11.335C245.786,312.634,240.713,310.841,236.477,312.865z" style="" fill="#FFFFFF"></path><path d="M375.899,319.048l-45.691-4.86c2.353-5.539,4.266-11.313,5.751-17.293l38.142,4.058c0.306,0.032,0.609,0.049,0.91,0.049   c4.29,0,7.978-3.239,8.441-7.602c0.497-4.668-2.885-8.855-7.553-9.352l-36.983-3.935c0.522-4.841,0.794-9.791,0.794-14.85   c0-15.766-9.948-135.385-10.365-140.382l-4.899-67.208c-0.131-23.868-14.937-49.107-42.271-49.107   c-13.987,0-37.439,9.004-37.5,69.237l-3.628,67.891c-14.019-4.506-28.732-6.848-43.62-6.848c-15.504,0-30.772,2.523-45.269,7.382   L148.5,77.771C148.44,17.509,124.987,8.5,111,8.5c-27.325,0-42.369,25.188-42.511,49.016L63,124.572c0,0.012,0,0.024,0,0.037   s0.235,0.024,0.234,0.036c-0.357,5.129-8.631,125.775-8.631,140.486c0,5.309,0.36,10.497,0.935,15.566l-31.466,3.351   c-4.668,0.496-8.035,4.684-7.539,9.352c0.464,4.362,4.159,7.602,8.45,7.602c0.3,0,0.607-0.017,0.913-0.049l32.751-3.484   c1.522,5.979,3.482,11.745,5.874,17.28l-40.42,4.3c-4.668,0.496-8.049,4.684-7.553,9.352c0.464,4.362,4.151,7.602,8.442,7.602   c0.3,0,0.604-0.017,0.909-0.049l47.255-5.027c6.393,9.894,14.405,18.826,23.976,26.654c25.524,20.878,61.069,32.375,100.086,32.375   c39.027,0,74.569-11.473,100.081-32.304c9.78-7.986,17.928-17.131,24.388-27.274l52.416,5.576c0.306,0.032,0.609,0.049,0.91,0.049   c4.29,0,7.978-3.239,8.441-7.602C383.949,323.731,380.567,319.544,375.899,319.048z M197.216,372.954   c-40.455,0-81.139-13.991-104.792-44.079l27.475-2.923c4.668-0.496,8.05-4.684,7.553-9.352c-0.496-4.668-4.685-8.046-9.351-7.553   l-35.818,3.811c-2.668-5.355-4.877-11.09-6.577-17.205l44.193-4.701c4.668-0.496,8.05-4.684,7.553-9.352   c-0.496-4.667-4.685-8.044-9.351-7.553l-45.62,4.854c-0.498-4.425-0.758-9.013-0.758-13.771c0-11.299,5.694-96.016,8.708-139.268   l5.271-67.338c0.017-0.221,0.026-0.442,0.026-0.664c0-9.001,4.54-32.361,25.272-32.361c19.021,0,20.5,40.184,20.5,52.5   c0,0.151,0.004,0.302,0.012,0.454l3.983,74.555c-4.632,2.241-9.156,4.732-13.543,7.483c-3.978,2.493-5.181,7.739-2.687,11.716   c1.614,2.574,4.38,3.986,7.21,3.986c1.542,0,3.104-0.419,4.506-1.299c19.879-12.462,42.855-19.049,66.444-19.049   c22.563,0,44.681,6.063,63.961,17.533c4.033,2.401,9.251,1.076,11.65-2.958c2.4-4.035,1.076-9.251-2.959-11.651   c-4.016-2.389-8.142-4.567-12.356-6.539l3.94-73.744c0.008-0.151,0.012-0.302,0.012-0.454c0-13.661,1.393-25.588,4.026-34.493   c5.315-17.974,13.714-17.974,16.474-17.974c20.732,0,25.272,23.408,25.272,32.428c0,0.206,0.008,0.412,0.022,0.618l4.928,67.593   c3.567,42.826,10.313,127.003,10.313,139.058c0,4.502-0.235,8.851-0.684,13.053l-40.127-4.269   c-4.668-0.491-8.855,2.885-9.352,7.553c-0.497,4.668,2.885,8.855,7.553,9.352l38.812,4.129c-1.657,6.118-3.828,11.854-6.453,17.218   l-30.56-3.251c-4.668-0.493-8.855,2.884-9.352,7.553c-0.497,4.668,2.885,8.855,7.553,9.352l22.376,2.381   C278.895,358.796,237.938,372.954,197.216,372.954z" style="" fill="#FFFFFF"></path><path d="M277.604,223.779c-3.867,2.987-13.691,1.875-20.505,0.624c-2.164-1.055-4.586-1.663-7.156-1.663   c-9.051,0-16.383,7.336-16.383,16.383c0,9.049,7.332,16.384,16.383,16.384c9.049,0,16.383-7.335,16.383-16.384   c0-1.958-0.361-3.828-0.991-5.568C273.314,231.035,277.604,223.779,277.604,223.779z" style="" fill="#FFFFFF"></path></g></svg>