<svg xmlns="http://www.w3.org/2000/svg" data-name="Layer 1" viewBox="0 0 100 100" x="0px" y="0px" style="max-width:100%" height="100%"><title style="" fill="currentColor">thicker_map</title><path d="M50,5A31,31,0,0,0,19,36C19,52,45,88.12,48,92.19L50,95l2-2.81C55,88.12,81,52,81,36A31,31,0,0,0,50,5Zm0,81.32C43.84,77.51,24.1,48.3,24.1,36a25.9,25.9,0,0,1,51.8,0C75.9,48.3,56.16,77.51,50,86.32Z" style="" fill="currentColor"></path><path d="M50,17.89A14.74,14.74,0,1,0,64.74,32.63,14.76,14.76,0,0,0,50,17.89ZM40.32,32.63A9.68,9.68,0,1,1,50,42.31,9.69,9.69,0,0,1,40.32,32.63Z" style="" fill="currentColor"></path></svg>