<svg xmlns="http://www.w3.org/2000/svg" x="0px" y="0px"
width="28" height="28"
viewBox="0 0 172 172"
style=" fill:#000000;"><g fill="none" fill-rule="nonzero" stroke="none" stroke-width="1" stroke-linecap="butt" stroke-linejoin="miter" stroke-miterlimit="10" stroke-dasharray="" stroke-dashoffset="0" font-family="none" font-weight="none" font-size="none" text-anchor="none" style="mix-blend-mode: normal"><path d="M0,172v-172h172v172z" fill="none"></path><g fill="#fa3600"><path d="M86,16.125c-38.58981,0 -69.875,31.28519 -69.875,69.875c0,38.58981 31.28519,69.875 69.875,69.875c38.58981,0 69.875,-31.28519 69.875,-69.875c0,-38.58981 -31.28519,-69.875 -69.875,-69.875zM120.74131,70.48237c0.03225,0.72831 0.04569,1.45931 0.04569,2.193c0,22.41375 -16.63294,48.26213 -47.05812,48.26213c-9.34175,0 -18.03581,-2.80844 -25.35656,-7.61906c1.29538,0.15856 2.61494,0.23919 3.94794,0.23919c7.75075,0 14.88338,-2.71169 20.54325,-7.26162c-7.23744,-0.13706 -13.34612,-5.04444 -15.45044,-11.782c1.00781,0.1935 2.04519,0.301 3.10944,0.301c1.51038,0 2.97506,-0.20694 4.35913,-0.59394c-7.568,-1.55606 -13.26819,-8.41187 -13.26819,-16.63025c0,-0.07256 0,-0.13975 0,-0.21231c2.23062,1.2685 4.78106,2.03175 7.49275,2.12044c-4.43706,-3.03956 -7.35569,-8.23181 -7.35569,-14.11475c0,-3.11213 0.81431,-6.02538 2.236,-8.53281c8.16194,10.26356 20.34706,17.01994 34.09363,17.72406c-0.2795,-1.23625 -0.42731,-2.53431 -0.42731,-3.86463c0,-9.36594 7.40406,-16.96081 16.53888,-16.96081c4.75688,0 9.05419,2.06131 12.07225,5.35887c3.77056,-0.76325 7.31269,-2.17419 10.50544,-4.11725c-1.23356,3.96137 -3.85388,7.28581 -7.27238,9.38475c3.34862,-0.41388 6.536,-1.32225 9.503,-2.67406c-2.21719,3.39969 -5.02294,6.3855 -8.25869,8.78006z"></path></g></g></svg>